<?xml version="1.0" encoding="UTF-8"?>
<svg xmlns="http://www.w3.org/2000/svg" viewBox="0 0 67 56" width="67" height="56">
<path d="M0.13 0.13C22.38 0.13 44.63 0.13 66.88 0.13C66.88 18.71 66.88 37.29 66.88 55.88C44.63 55.88 22.38 55.88 0.13 55.88C0.13 37.29 0.13 18.71 0.13 0.13ZM31.25 11.23C30.42 11.23 29.58 11.23 28.75 11.23C26.09 18.57 23.43 25.91 20.76 33.25C24.26 33.82 24.19 30.05 25.63 27.6C28.56 27.6 31.5 27.6 34.43 27.6C35.8 30.05 35.74 33.83 39.2 33.25C39.56 31.04 38.02 28.59 37.25 26.53C35.44 21.67 34.23 15.47 31.25 11.23ZM30.25 15.89C31.26 18.89 32.26 21.9 33.27 24.91C31.09 24.91 28.91 24.91 26.73 24.91C26.88 22.46 28.22 17.25 30.25 15.89ZM17.75 35.92C15.37 38.36 13 40.81 10.62 43.25C13 45.61 15.37 47.96 17.75 50.32C18.4 49.79 19.04 49.27 19.69 48.75C18.84 47.47 17.99 46.19 17.14 44.9C25.71 44.9 34.28 44.9 42.84 44.9C41.98 46.19 41.11 47.48 40.25 48.76C40.92 49.28 41.58 49.79 42.25 50.3C44.62 47.95 47 45.6 49.37 43.25C47 40.8 44.62 38.36 42.25 35.91C41.63 36.36 41.01 36.8 40.4 37.25C41.18 38.44 41.97 39.62 42.75 40.81C40.94 41.87 38.39 41.44 36.25 41.44C31.96 41.44 20.52 42.68 17.25 40.83C18.04 39.64 18.84 38.44 19.63 37.25C19 36.81 18.38 36.36 17.75 35.92Z" fill="#fefefe" fill-rule="evenodd" stroke="#fefefe" stroke-width="0.25" stroke-linejoin="round"/>
<path d="M31.25 11.23C34.23 15.47 35.44 21.67 37.25 26.53C38.02 28.59 39.56 31.04 39.2 33.25C35.74 33.83 35.8 30.05 34.43 27.6C31.5 27.6 28.56 27.6 25.63 27.6C24.19 30.05 24.26 33.82 20.76 33.25C23.43 25.91 26.09 18.57 28.75 11.23C29.58 11.23 30.42 11.23 31.25 11.23ZM30.25 15.89C28.22 17.25 26.88 22.46 26.73 24.91C28.91 24.91 31.09 24.91 33.27 24.91C32.26 21.9 31.26 18.89 30.25 15.89ZM17.75 35.92C18.38 36.36 19 36.81 19.63 37.25C18.84 38.44 18.04 39.64 17.25 40.83C20.52 42.68 31.96 41.44 36.25 41.44C38.39 41.44 40.94 41.87 42.75 40.81C41.97 39.62 41.18 38.44 40.4 37.25C41.01 36.8 41.63 36.36 42.25 35.91C44.62 38.36 47 40.8 49.37 43.25C47 45.6 44.62 47.95 42.25 50.3C41.58 49.79 40.92 49.28 40.25 48.76C41.11 47.48 41.98 46.19 42.84 44.9C34.28 44.9 25.71 44.9 17.14 44.9C17.99 46.19 18.84 47.47 19.69 48.75C19.04 49.27 18.4 49.79 17.75 50.32C15.37 47.96 13 45.61 10.62 43.25C13 40.81 15.37 38.36 17.75 35.92Z" fill="#2a292d" fill-rule="evenodd" stroke="#2a292d" stroke-width="0.25" stroke-linejoin="round"/>
</svg>